<svg width="96" height="96" viewBox="0 0 96 96" fill="none" xmlns="http://www.w3.org/2000/svg">
<rect width="96" height="96" rx="12" fill="white"/>
<path d="M52.7713 18.8182H63.2259V59.7273C63.2069 63.4773 62.4115 66.7064 60.8395 69.4148C59.2675 72.1042 57.0705 74.178 54.2486 75.6364C51.4455 77.0758 48.1785 77.7955 44.4474 77.7955C41.0384 77.7955 37.9702 77.1894 35.2429 75.9773C32.5346 74.7462 30.3849 72.928 28.794 70.5227C27.2031 68.1174 26.4077 65.125 26.4077 61.5455H36.8906C36.9096 63.1174 37.2505 64.4716 37.9134 65.608C38.5952 66.7443 39.5327 67.6155 40.7259 68.2216C41.919 68.8277 43.2921 69.1307 44.8452 69.1307C46.5308 69.1307 47.9607 68.7803 49.1349 68.0795C50.3092 67.3598 51.1993 66.2992 51.8054 64.8977C52.4304 63.4962 52.7524 61.7727 52.7713 59.7273V18.8182Z" fill="black"/>
</svg>
